<svg width="40" height="44" viewBox="0 0 40 44" fill="none" xmlns="http://www.w3.org/2000/svg">
<g clip-path="url(#clip0_265_3412)">
<path d="M29.9596 25.3183C29.0695 25.3382 28.3952 26.0217 28.3885 26.9442C28.3818 28.6365 28.3885 30.3288 28.3885 32.0145C28.3885 33.1958 27.7209 33.8594 26.5274 33.8661C24.3898 33.8661 22.2455 33.8661 20.108 33.8661C19.9799 33.8661 19.8517 33.8528 19.6697 33.8462V33.2821C19.6697 26.5726 19.6495 19.8697 19.6832 13.1602C19.6899 11.0299 18.8133 9.49683 16.932 8.44827C13.9853 6.80905 11.0588 5.11674 8.12551 3.45098C8.00414 3.38462 7.88951 3.31161 7.78836 3.15897H8.19969C14.2685 3.15897 20.3372 3.15897 26.4128 3.15897C27.7681 3.15897 28.3818 3.7629 28.3818 5.09683C28.3818 6.98824 28.3818 8.87964 28.3818 10.771C28.3818 11.9125 29.3595 12.6691 30.4249 12.3771C31.0453 12.2045 31.5577 11.6736 31.5645 11.0033C31.5847 8.75354 31.6521 6.49713 31.5105 4.26063C31.3689 2.0905 29.6967 0.464555 27.5186 0.0730015C27.4512 0.0597285 27.3838 0.026546 27.3231 0H4.27521C3.70205 0.199095 3.08843 0.318552 2.56921 0.603922C0.856465 1.53967 0.0203221 3.01961 0.013579 4.94419C9.28501e-05 7.57888 0.013579 10.2202 0.013579 12.8549C0.013579 19.644 0.0270652 26.4398 0.00683594 33.229C0.00683594 35.3327 0.883437 36.8658 2.75127 37.9077C5.96773 39.6995 9.14372 41.5445 12.3534 43.3496C15.1923 44.9424 18.7526 43.5089 19.5078 40.4428C19.7101 39.6199 19.636 38.7373 19.6764 37.8811C19.6899 37.6157 19.6764 37.3436 19.6764 37.0184C19.8922 37.0184 20.0608 37.0184 20.2361 37.0184C22.4478 37.0184 24.6596 37.0649 26.8713 36.9919C29.555 36.9056 31.5308 34.908 31.5982 32.26C31.6387 30.4814 31.6184 28.7095 31.5982 26.9309C31.5915 25.9952 30.8632 25.305 29.9664 25.3249L29.9596 25.3183Z" fill="#EC1F27"/>
<path d="M39.13 17.0292C37.8623 15.7418 36.5677 14.4875 35.2797 13.2199C35.1786 13.1203 35.0774 13.0142 34.9695 12.9212C34.4436 12.4633 33.7356 12.3771 33.1422 12.689C32.5285 13.0075 32.1712 13.6513 32.3263 14.3415C32.4004 14.6733 32.6027 15.0051 32.8387 15.2573C33.3445 15.8148 33.9041 16.3258 34.5178 16.9297C33.1691 16.9297 31.9554 16.9297 30.7349 16.9297C28.0579 16.9297 25.3809 16.9297 22.7039 16.9297C21.9014 16.9297 21.2474 17.4872 21.1327 18.2172C21.0046 19.0069 21.4362 19.7502 22.1846 19.9825C22.4409 20.0621 22.7308 20.0754 23.0006 20.0754C26.6351 20.0754 30.2764 20.0754 33.9109 20.0754H34.3896C33.8839 20.7059 33.331 21.197 32.8387 21.7412C32.6027 22.0066 32.3937 22.3583 32.3195 22.6968C32.1712 23.3936 32.542 24.0307 33.1691 24.3294C33.8097 24.6413 34.5043 24.5285 35.0505 23.9976C36.4261 22.657 37.8016 21.3164 39.1503 19.9493C39.4942 19.6042 39.7167 19.1396 39.9999 18.7348V18.2172C39.7099 17.8123 39.4739 17.3677 39.13 17.016V17.0292Z" fill="black"/>
</g>
<defs>
<clipPath id="clip0_265_3412">
<rect width="40" height="44" fill="white"/>
</clipPath>
</defs>
</svg>
